<svg id="图层_1" data-name="图层 1" xmlns="http://www.w3.org/2000/svg" viewBox="0 0 26.1 27.63"><defs><style>.cls-1{fill:#c8161d;fill-rule:evenodd;}</style></defs><g id="编组-7"><g id="编组"><path id="路径" class="cls-1" d="M10.22,13.74l-.12-.07c.1-1.1.25-2.23.33-3.38h0l-2.26,2.5c-1-.43-2-.91-3-1.34a1.86,1.86,0,0,0,.24.49l.3.49c.1.17.19.3.29.48l.3.48c.1.17.19.3.29.48a2.42,2.42,0,0,0,.2.51L4.49,16.87h0c.3,0,.59-.11.85-.14s.54-.1.83-.18.54-.11.83-.19.55-.11.84-.19c.54,1,1.13,1.94,1.67,2.91h0c.05-.53.1-1.1.15-1.63s.11-1.11.2-1.7l.09,0,0,.09c0,.32,0,.61,0,.93,0,.5.1,1.05.18,1.54a10.33,10.33,0,0,0,.45,1.56A12.08,12.08,0,0,0,12.35,23a11.3,11.3,0,0,0,10.51,4.24,10.71,10.71,0,0,0,2.1-.5,11.76,11.76,0,0,0,3.13-1.67c.05,0,.08-.08.13-.09s-.08.08-.07.12a13,13,0,0,1-4.78,4.1c-.5.24-1,.49-1.52.69a13.3,13.3,0,0,1-1.84.53,13.7,13.7,0,0,1-7.56-.51,13.4,13.4,0,0,1-7.29-6.13,10.72,10.72,0,0,1-.92-1.94A11.8,11.8,0,0,1,3.6,20,13.93,13.93,0,0,1,7,7.42a13.54,13.54,0,0,1,3.86-2.91A14.51,14.51,0,0,1,14,3.42a13.62,13.62,0,0,1,7.25.34A14.35,14.35,0,0,1,24,5c0,.05.06,0,.08.08a.05.05,0,0,1-.07,0,10.32,10.32,0,0,0-3.63-.29,11,11,0,0,0-2.85.61,12.79,12.79,0,0,0-3.43,1.9,11.73,11.73,0,0,0-3.52,5,8.73,8.73,0,0,0-.36,1.29C10.24,13.63,10.21,13.69,10.22,13.74Z" transform="translate(-3.27 -3.08)"/><path id="路径-2" data-name="路径" class="cls-1" d="M26.58,18,29,17.45c0,.05,0,.05,0,.11a8.59,8.59,0,0,1-4.49,6,8,8,0,0,1-2,.73,8.61,8.61,0,0,1-6-.79,9,9,0,0,1-3.66-3.67,8,8,0,0,1-.76-2.1,3.86,3.86,0,0,1-.16-1.08c0-.05,0-.05,0-.11,0,.09.09.13.12.22a6.87,6.87,0,0,0,5.57,3.75,6.09,6.09,0,0,0,2.47-.3,5.86,5.86,0,0,0,2.48-1.38.42.42,0,0,1,.22-.11c.36,0,.69-.15,1-.2s.89-.2,1.29-.26l.09,0c.41.7.81,1.36,1.16,2h.05a2.33,2.33,0,0,0,0-.58,3.14,3.14,0,0,0,0-.58c0-.2.05-.37.05-.58A5.29,5.29,0,0,0,26.58,18Z" transform="translate(-3.27 -3.08)"/><path id="路径-3" data-name="路径" class="cls-1" d="M27,14c-.08.79-.17,1.59-.24,2.43-.79.17-1.57.35-2.42.49-.41-.71-.81-1.36-1.17-2.08h0a3.88,3.88,0,0,0,.36.15c.12.07.23.09.35.16a3.88,3.88,0,0,1,.36.15c.13.07.24.09.36.16s.23.08.36.15.23.09.35.16c.62-.59,1.12-1.2,1.69-1.77Z" transform="translate(-3.27 -3.08)"/><path id="路径-4" data-name="路径" class="cls-1" d="M27.48,12.75c-.4.06-.78.17-1.14.22h0c.09-.07.16-.2.24-.27l.28-.29c.09-.07.15-.2.29-.29l-.61-1h0l1.08.46a11.73,11.73,0,0,0,.78-.9c0,.05,0,.1,0,.11,0,.32-.06.69-.08,1,0,.11,0,.11.09.13a7.89,7.89,0,0,1,.9.41c.05,0,.07,0,.08.08-.4.06-.74.16-1.14.22-.05.38-.08.8-.13,1.17l-.05,0A9.16,9.16,0,0,0,27.48,12.75Z" transform="translate(-3.27 -3.08)"/><path id="路径-5" data-name="路径" class="cls-1" d="M25.51,8.23a3.62,3.62,0,0,1,.66.32c.16-.2.32-.35.52-.56h0c0,.26-.07.48-.1.75a2.3,2.3,0,0,1,.67.32h0c-.24.07-.5.09-.74.16,0,.27-.07.48-.1.75A4.08,4.08,0,0,1,26,9.31c-.25.07-.5.09-.74.16l0-.06a5.07,5.07,0,0,1,.4-.42c.09-.08.09-.08,0-.16l-.31-.53c.1,0,.1,0,.09-.07Z" transform="translate(-3.27 -3.08)"/><path id="路径-6" data-name="路径" class="cls-1" d="M23.81,6.86c-.09-.13-.13-.27-.22-.4h0c.12.07.3.12.42.19l.32-.35a1.85,1.85,0,0,1,0,.47c.12.07.29.12.42.19h0a1.7,1.7,0,0,1-.45.08,2.14,2.14,0,0,1-.07.48h0a1.44,1.44,0,0,1-.22-.4,2.14,2.14,0,0,1-.5.09A1.06,1.06,0,0,0,23.81,6.86Z" transform="translate(-3.27 -3.08)"/></g></g></svg>